<svg xmlns="http://www.w3.org/2000/svg" width="35.59" height="38.5" viewBox="0 0 35.59 38.5"><style>.st4{fill:#fff}.st5,.st6{fill:none;stroke:#fff;stroke-width:2;stroke-miterlimit:10}.st6{stroke-width:3;stroke-linecap:round}</style><path class="st4" d="M16.33 33H2.17L4 11h24.16l.61 7.34c.79.46 1.52 1.03 2.15 1.7L30.01 9H2.17L0 35h18.59a9.807 9.807 0 0 1-2.26-2z"/><path class="st5" d="M10.09 15V7c0-3.31 2.69-6 6-6s6 2.69 6 6v8"/><path class="st4" d="M23.86 21c3.19 0 5.78 2.59 5.78 5.78s-2.59 5.78-5.78 5.78-5.78-2.59-5.78-5.78S20.68 21 23.86 21m0-2c-4.3 0-7.78 3.48-7.78 7.78s3.48 7.78 7.78 7.78 7.78-3.48 7.78-7.78S28.16 19 23.86 19z"/><path class="st6" d="M34.09 37l-4.67-4.67"/></svg>